<svg xmlns="http://www.w3.org/2000/svg" xmlns:xlink="http://www.w3.org/1999/xlink" version="1.1" x="0px" y="0px" viewBox="0 0 216 64" style="enable-background:new 0 0 216 64;" xml:space="preserve">
<style type="text/css">
	.st0{fill:none;stroke:#BAA657;stroke-width:1.5;stroke-linecap:round;stroke-linejoin:round;stroke-miterlimit:10;}
	.st1{fill:none;stroke:#00674A;stroke-width:1.5;stroke-linecap:round;stroke-linejoin:round;stroke-miterlimit:10;}
	.st2{fill:none;stroke:#00674A;stroke-width:1.5;stroke-linecap:round;stroke-miterlimit:10;}
	.st3{fill:none;stroke:#BBA757;stroke-width:1.5;stroke-linecap:round;stroke-miterlimit:10;}
	.st4{fill:none;stroke:#BBA757;stroke-width:1.5;stroke-linecap:round;stroke-linejoin:round;stroke-miterlimit:10;}
	.st5{opacity:5.000000e-02;fill:#018D6A;}
	.st6{fill:none;stroke:#00674A;stroke-width:2.5;stroke-linecap:round;stroke-linejoin:round;stroke-miterlimit:10;}

		.st7{opacity:0.3;fill:#BAA657;stroke:#BAA657;stroke-width:3.0905;stroke-linecap:round;stroke-linejoin:round;stroke-miterlimit:10;}
	.st8{fill:#FFFFFF;}
	.st9{fill:none;stroke:#BAA657;stroke-width:2.5;stroke-linecap:round;stroke-linejoin:round;stroke-miterlimit:10;}
	.st10{opacity:0.3;}
	.st11{fill:#BAA657;stroke:#BAA657;stroke-width:3.0905;stroke-linecap:round;stroke-linejoin:round;stroke-miterlimit:10;}
	.st12{fill:none;stroke:#C3A850;stroke-width:2.5;stroke-linecap:round;stroke-linejoin:round;stroke-miterlimit:10;}
	.st13{fill:none;stroke:#016649;stroke-width:2.5;stroke-linecap:round;stroke-linejoin:round;stroke-miterlimit:10;}
	.st14{fill:none;stroke:#808080;stroke-width:1.5;stroke-linecap:round;stroke-linejoin:round;stroke-miterlimit:10;}
	.st15{fill:#808080;}
	.st16{fill:#808080;stroke:#808080;stroke-width:1.5;stroke-linecap:round;stroke-linejoin:round;stroke-miterlimit:10;}
	.st17{opacity:0.4;}
	.st18{fill:none;stroke:#C4C4C4;stroke-width:1.1017;stroke-miterlimit:10;}
	.st19{fill:#C4C4C4;}
	.st20{fill:none;stroke:#018D6A;stroke-width:1.1017;stroke-miterlimit:10;}
	.st21{fill:none;stroke:#018D6A;stroke-width:1.5;stroke-linecap:round;stroke-linejoin:round;stroke-miterlimit:10;}
	.st22{fill:none;stroke:#FFFFFF;stroke-linecap:round;stroke-linejoin:round;stroke-miterlimit:10;}
	.st23{fill:none;stroke:#E4E4BB;stroke-linecap:round;stroke-linejoin:round;stroke-miterlimit:10;}
	.st24{fill:none;stroke:#CACACA;stroke-width:2;stroke-linecap:round;stroke-linejoin:round;stroke-miterlimit:10;}
	.st25{fill:#939393;}
	.st26{fill:#F8F8F8;}
	.st27{fill:none;stroke:#018D6A;stroke-width:3;stroke-linecap:round;stroke-linejoin:round;stroke-miterlimit:10;}
	.st28{fill:none;stroke:#BAA657;stroke-width:1.5;stroke-linecap:round;stroke-miterlimit:10;}
	.st29{fill:none;stroke:#231F20;stroke-width:1.5;stroke-miterlimit:10;}
	.st30{fill:none;stroke:#C5CB78;stroke-width:1.5;stroke-linecap:round;stroke-linejoin:round;stroke-miterlimit:10;}
	.st31{fill:none;stroke:#BBA757;stroke-width:1.5;stroke-linecap:square;stroke-miterlimit:10;}
	.st32{fill:none;stroke:#FFFFFF;stroke-width:1.5;stroke-linecap:round;stroke-linejoin:round;stroke-miterlimit:10;}
	.st33{fill:none;stroke:#C5CB78;stroke-width:1.5;stroke-linecap:round;stroke-miterlimit:10;}
	.st34{fill:none;stroke:#C5CB78;stroke-width:1.5;stroke-miterlimit:10;}
	.st35{fill:none;stroke:#C5CB78;stroke-width:1.5;stroke-linecap:square;stroke-miterlimit:10;}
	.st36{fill:none;stroke:#FFFFFF;stroke-width:1.5;stroke-linecap:round;stroke-miterlimit:10;}
	.st37{fill:#00674A;}
	.st38{fill:#FFFFFF;stroke:#FFFFFF;stroke-miterlimit:10;}
	.st39{opacity:0.1;fill:#018D6A;}
	.st40{fill:none;stroke:#016649;stroke-width:2.4625;stroke-linecap:round;stroke-linejoin:round;stroke-miterlimit:10;}
	.st41{fill:none;stroke:#BBA757;stroke-width:2.4625;stroke-linecap:round;stroke-linejoin:round;stroke-miterlimit:10;}
	.st42{fill:#BAA657;stroke:#BAA657;stroke-width:3.0442;stroke-linecap:round;stroke-linejoin:round;stroke-miterlimit:10;}
	.st43{fill:none;stroke:#00674A;stroke-width:2.4625;stroke-linecap:round;stroke-linejoin:round;stroke-miterlimit:10;}
	.st44{fill:none;stroke:#00674A;stroke-width:1.312;stroke-linecap:round;stroke-linejoin:round;stroke-miterlimit:10;}
	.st45{fill:none;stroke:#BAA657;stroke-width:1.312;stroke-linecap:round;stroke-linejoin:round;stroke-miterlimit:10;}
	.st46{fill:#BAA657;}
	.st47{fill:#BBA757;}
	.st48{fill:none;stroke:#C4C4C4;stroke-width:1.5;stroke-linecap:round;stroke-linejoin:round;stroke-miterlimit:10;}
	.st49{fill:#A5A5A5;}
	.st50{fill:#FFFFFF;stroke:#FFFFFF;stroke-width:0.2;stroke-miterlimit:10;}
	.st51{fill:url(#SVGID_1_);}
	.st52{fill:url(#SVGID_2_);}
	.st53{fill:url(#SVGID_3_);}
	.st54{fill:url(#SVGID_4_);}
	.st55{opacity:0.2;fill:#010100;enable-background:new    ;}
	.st56{opacity:0.12;fill:#010100;enable-background:new    ;}
	.st57{opacity:0.25;fill:#FFFFFF;enable-background:new    ;}
	.st58{fill:#FF15D3;}
</style>
<g id="conta_corrente">
</g>
<g id="associe-se">
</g>
<g id="Denuncia">
</g>
<g id="Duvida_sfrequentes">
</g>
<g id="Encontre_agencia">
</g>
<g id="Home">
</g>
<g id="Sistema_Unicred">
</g>
<g id="Soluções">
</g>
<g id="Coopertivas">
</g>
<g id="Atendimento">
</g>
<g id="Cooperativismo">
</g>
<g id="Relatorios_contratos_conselhos_e_diretoria">
</g>
<g id="Estatuto">
</g>
<g id="Canais_Digitais">
</g>
<g id="geral">
	<g id="app_x5F_apple_x5F_store">
		<g>
			<path d="M208,64H8c-4.4,0-8-3.6-8-8V8c0-4.4,3.6-8,8-8h200c4.4,0,8,3.6,8,8v48C216,60.4,212.4,64,208,64z"/>
		</g>
		<g>
			<g>
				<path class="st49" d="M208,1.3c3.7,0,6.7,3,6.7,6.7v48c0,3.7-3,6.7-6.7,6.7H8c-3.7,0-6.7-3-6.7-6.7V8c0-3.7,3-6.7,6.7-6.7H208       M208,0H8C3.6,0,0,3.6,0,8v48c0,4.4,3.6,8,8,8h200c4.4,0,8-3.6,8-8V8C216,3.6,212.4,0,208,0L208,0z"/>
			</g>
		</g>
		<g>
			<g id="XMLID_4_">
				<g id="XMLID_5_">
					<path id="XMLID_7_" class="st8" d="M39.6,31c0-4.4,3.6-6.5,3.8-6.6c-2.1-3-5.3-3.4-6.4-3.5c-2.7-0.3-5.3,1.6-6.7,1.6       c-1.4,0-3.5-1.6-5.8-1.5c-2.9,0-5.7,1.7-7.2,4.4c-3.1,5.4-0.8,13.2,2.2,17.6c1.5,2.1,3.2,4.5,5.5,4.4c2.2-0.1,3-1.4,5.7-1.4       c2.7,0,3.4,1.4,5.7,1.4c2.4,0,3.9-2.1,5.3-4.3c1.7-2.4,2.4-4.8,2.4-4.9C44.2,38.1,39.7,36.3,39.6,31z"/>
					<path id="XMLID_6_" class="st8" d="M35.3,18.1c1.2-1.5,2-3.5,1.8-5.6c-1.7,0.1-3.9,1.2-5.1,2.7c-1.1,1.3-2.1,3.4-1.8,5.4       C32,20.7,34,19.6,35.3,18.1z"/>
				</g>
			</g>
			<g>
				<path class="st8" d="M77.7,42h-7.6l-1.8,5.4h-3.2l7.2-19.9h3.3l7.2,19.9h-3.3L77.7,42z M70.9,39.5h6l-3-8.7h-0.1L70.9,39.5z"/>
				<path class="st8" d="M98.3,40.1c0,4.5-2.4,7.4-6,7.4c-2.1,0-3.7-0.9-4.6-2.5h-0.1v7.2h-3V32.9h2.9v2.4h0.1      c0.8-1.6,2.6-2.6,4.6-2.6C95.8,32.7,98.3,35.6,98.3,40.1z M95.2,40.1c0-2.9-1.5-4.9-3.8-4.9c-2.3,0-3.8,2-3.8,4.9      c0,2.9,1.5,4.9,3.8,4.9C93.7,45,95.2,43.1,95.2,40.1z"/>
				<path class="st8" d="M114.2,40.1c0,4.5-2.4,7.4-6,7.4c-2.1,0-3.7-0.9-4.6-2.5h-0.1v7.2h-3V32.9h2.9v2.4h0.1      c0.8-1.6,2.6-2.6,4.6-2.6C111.8,32.7,114.2,35.6,114.2,40.1z M111.1,40.1c0-2.9-1.5-4.9-3.8-4.9c-2.3,0-3.8,2-3.8,4.9      c0,2.9,1.5,4.9,3.8,4.9C109.6,45,111.1,43.1,111.1,40.1z"/>
				<path class="st8" d="M124.7,41.8c0.2,2,2.1,3.3,4.8,3.3c2.5,0,4.3-1.3,4.3-3.1c0-1.5-1.1-2.5-3.7-3.1l-2.6-0.6      c-3.6-0.9-5.3-2.6-5.3-5.4c0-3.4,3-5.8,7.2-5.8c4.2,0,7.1,2.4,7.2,5.8h-3c-0.2-2-1.8-3.2-4.2-3.2c-2.4,0-4,1.2-4,3      c0,1.4,1,2.2,3.6,2.9l2.2,0.5c4.1,1,5.8,2.6,5.8,5.5c0,3.7-3,6-7.7,6c-4.4,0-7.4-2.3-7.6-5.9H124.7z"/>
				<path class="st8" d="M143.4,29.4v3.4h2.8v2.4h-2.8v8c0,1.2,0.6,1.8,1.8,1.8c0.3,0,0.8,0,1-0.1v2.3c-0.3,0.1-1,0.1-1.7,0.1      c-2.9,0-4.1-1.1-4.1-3.9v-8.3h-2.1v-2.4h2.1v-3.4H143.4z"/>
				<path class="st8" d="M147.7,40.1c0-4.6,2.7-7.4,6.9-7.4c4.2,0,6.9,2.9,6.9,7.4c0,4.6-2.7,7.4-6.9,7.4      C150.4,47.5,147.7,44.7,147.7,40.1z M158.4,40.1c0-3.1-1.4-5-3.8-5s-3.8,1.9-3.8,5c0,3.1,1.4,5,3.8,5S158.4,43.2,158.4,40.1z"/>
				<path class="st8" d="M163.9,32.9h2.8v2.5h0.1c0.5-1.6,1.8-2.6,3.5-2.6c0.4,0,0.8,0.1,1,0.1v2.8c-0.2-0.1-0.8-0.2-1.3-0.2      c-1.9,0-3.1,1.3-3.1,3.3v8.6h-3V32.9z"/>
				<path class="st8" d="M185,43.1c-0.4,2.6-3,4.4-6.2,4.4c-4.2,0-6.8-2.8-6.8-7.4c0-4.5,2.6-7.5,6.7-7.5c4,0,6.5,2.8,6.5,7.1v1      h-10.2V41c0,2.5,1.6,4.1,3.9,4.1c1.7,0,2.9-0.8,3.3-2H185z M175,38.8h7.2c-0.1-2.2-1.5-3.7-3.6-3.7      C176.6,35.1,175.1,36.6,175,38.8z"/>
			</g>
			<g>
				<path class="st8" d="M66.1,22.1v-9.5h3.8c1.8,0,2.9,0.9,2.9,2.4c0,1-0.7,1.9-1.7,2.1v0.1c1.3,0.1,2.2,1.1,2.2,2.3      c0,1.7-1.2,2.7-3.3,2.7H66.1z M67.6,16.6h1.8c1.3,0,2-0.5,2-1.4c0-0.9-0.6-1.4-1.7-1.4h-2V16.6z M69.7,20.8c1.3,0,2-0.5,2-1.6      c0-1-0.7-1.5-2.1-1.5h-2.1v3.1H69.7z"/>
				<path class="st8" d="M74.8,20c0-1.3,1-2,2.7-2.2l2-0.1v-0.6c0-0.8-0.5-1.2-1.5-1.2c-0.8,0-1.3,0.3-1.5,0.8h-1.4      c0.1-1.2,1.3-2,2.9-2c1.8,0,2.8,0.9,2.8,2.4v4.9h-1.4v-1h-0.1c-0.4,0.7-1.2,1.1-2.2,1.1C75.8,22.2,74.8,21.3,74.8,20z       M79.4,19.4v-0.6l-1.8,0.1c-1,0.1-1.4,0.4-1.4,1c0,0.6,0.6,1,1.3,1C78.6,21,79.4,20.3,79.4,19.4z"/>
				<path class="st8" d="M82.9,12.7c0-0.5,0.4-0.9,0.9-0.9c0.5,0,0.9,0.4,0.9,0.9c0,0.5-0.4,0.9-0.9,0.9      C83.3,13.6,82.9,13.2,82.9,12.7z M83.1,14.9h1.4v7.2h-1.4V14.9z"/>
				<path class="st8" d="M89.4,19.5l-1.6,2.6h-1.6l2.4-3.6l-2.4-3.6h1.7l1.5,2.5h0.1l1.5-2.5h1.6l-2.4,3.6l2.4,3.6h-1.6l-1.6-2.6      H89.4z"/>
				<path class="st8" d="M93.9,20c0-1.3,1-2,2.7-2.2l2-0.1v-0.6c0-0.8-0.5-1.2-1.5-1.2c-0.8,0-1.3,0.3-1.5,0.8h-1.4      c0.1-1.2,1.3-2,2.9-2c1.8,0,2.8,0.9,2.8,2.4v4.9h-1.4v-1h-0.1c-0.4,0.7-1.2,1.1-2.2,1.1C95,22.2,93.9,21.3,93.9,20z M98.6,19.4      v-0.6l-1.8,0.1c-1,0.1-1.4,0.4-1.4,1c0,0.6,0.6,1,1.3,1C97.8,21,98.6,20.3,98.6,19.4z"/>
				<path class="st8" d="M102.2,14.9h1.4V16h0.1c0.2-0.7,1-1.2,1.9-1.2c0.2,0,0.5,0,0.6,0.1v1.4c-0.1,0-0.5-0.1-0.8-0.1      c-1.1,0-1.8,0.7-1.8,1.7v4.3h-1.4V14.9z"/>
				<path class="st8" d="M111.7,14.9h1.4V16h0.1c0.3-0.8,1.1-1.3,2.2-1.3c1.6,0,2.5,1,2.5,2.7v4.7h-1.4v-4.3c0-1.2-0.5-1.7-1.6-1.7      c-1.1,0-1.7,0.7-1.7,1.8v4.2h-1.4V14.9z"/>
				<path class="st8" d="M119.7,20c0-1.3,1-2,2.7-2.2l2-0.1v-0.6c0-0.8-0.5-1.2-1.5-1.2c-0.8,0-1.3,0.3-1.5,0.8h-1.4      c0.1-1.2,1.3-2,2.9-2c1.8,0,2.8,0.9,2.8,2.4v4.9h-1.4v-1h-0.1c-0.4,0.7-1.2,1.1-2.2,1.1C120.7,22.2,119.7,21.3,119.7,20z       M124.3,19.4v-0.6l-1.8,0.1c-1,0.1-1.4,0.4-1.4,1c0,0.6,0.6,1,1.3,1C123.5,21,124.3,20.3,124.3,19.4z"/>
			</g>
		</g>
	</g>
</g>
<g id="textos">
</g>
</svg>
