<svg xmlns="http://www.w3.org/2000/svg" xmlns:xlink="http://www.w3.org/1999/xlink" version="1.1" x="0px" y="0px" viewBox="0 0 216 64" style="enable-background:new 0 0 216 64;" xml:space="preserve">
<style type="text/css">
	.st0{fill:none;stroke:#BAA657;stroke-width:1.5;stroke-linecap:round;stroke-linejoin:round;stroke-miterlimit:10;}
	.st1{fill:none;stroke:#00674A;stroke-width:1.5;stroke-linecap:round;stroke-linejoin:round;stroke-miterlimit:10;}
	.st2{fill:none;stroke:#00674A;stroke-width:1.5;stroke-linecap:round;stroke-miterlimit:10;}
	.st3{fill:none;stroke:#BBA757;stroke-width:1.5;stroke-linecap:round;stroke-miterlimit:10;}
	.st4{fill:none;stroke:#BBA757;stroke-width:1.5;stroke-linecap:round;stroke-linejoin:round;stroke-miterlimit:10;}
	.st5{opacity:5.000000e-02;fill:#018D6A;}
	.st6{fill:none;stroke:#00674A;stroke-width:2.5;stroke-linecap:round;stroke-linejoin:round;stroke-miterlimit:10;}

		.st7{opacity:0.3;fill:#BAA657;stroke:#BAA657;stroke-width:3.0905;stroke-linecap:round;stroke-linejoin:round;stroke-miterlimit:10;}
	.st8{fill:#FFFFFF;}
	.st9{fill:none;stroke:#BAA657;stroke-width:2.5;stroke-linecap:round;stroke-linejoin:round;stroke-miterlimit:10;}
	.st10{opacity:0.3;}
	.st11{fill:#BAA657;stroke:#BAA657;stroke-width:3.0905;stroke-linecap:round;stroke-linejoin:round;stroke-miterlimit:10;}
	.st12{fill:none;stroke:#C3A850;stroke-width:2.5;stroke-linecap:round;stroke-linejoin:round;stroke-miterlimit:10;}
	.st13{fill:none;stroke:#016649;stroke-width:2.5;stroke-linecap:round;stroke-linejoin:round;stroke-miterlimit:10;}
	.st14{fill:none;stroke:#808080;stroke-width:1.5;stroke-linecap:round;stroke-linejoin:round;stroke-miterlimit:10;}
	.st15{fill:#808080;}
	.st16{fill:#808080;stroke:#808080;stroke-width:1.5;stroke-linecap:round;stroke-linejoin:round;stroke-miterlimit:10;}
	.st17{opacity:0.4;}
	.st18{fill:none;stroke:#C4C4C4;stroke-width:1.1017;stroke-miterlimit:10;}
	.st19{fill:#C4C4C4;}
	.st20{fill:none;stroke:#018D6A;stroke-width:1.1017;stroke-miterlimit:10;}
	.st21{fill:none;stroke:#018D6A;stroke-width:1.5;stroke-linecap:round;stroke-linejoin:round;stroke-miterlimit:10;}
	.st22{fill:none;stroke:#FFFFFF;stroke-linecap:round;stroke-linejoin:round;stroke-miterlimit:10;}
	.st23{fill:none;stroke:#E4E4BB;stroke-linecap:round;stroke-linejoin:round;stroke-miterlimit:10;}
	.st24{fill:none;stroke:#CACACA;stroke-width:2;stroke-linecap:round;stroke-linejoin:round;stroke-miterlimit:10;}
	.st25{fill:#939393;}
	.st26{fill:#F8F8F8;}
	.st27{fill:none;stroke:#018D6A;stroke-width:3;stroke-linecap:round;stroke-linejoin:round;stroke-miterlimit:10;}
	.st28{fill:none;stroke:#BAA657;stroke-width:1.5;stroke-linecap:round;stroke-miterlimit:10;}
	.st29{fill:none;stroke:#231F20;stroke-width:1.5;stroke-miterlimit:10;}
	.st30{fill:none;stroke:#C5CB78;stroke-width:1.5;stroke-linecap:round;stroke-linejoin:round;stroke-miterlimit:10;}
	.st31{fill:none;stroke:#BBA757;stroke-width:1.5;stroke-linecap:square;stroke-miterlimit:10;}
	.st32{fill:none;stroke:#FFFFFF;stroke-width:1.5;stroke-linecap:round;stroke-linejoin:round;stroke-miterlimit:10;}
	.st33{fill:none;stroke:#C5CB78;stroke-width:1.5;stroke-linecap:round;stroke-miterlimit:10;}
	.st34{fill:none;stroke:#C5CB78;stroke-width:1.5;stroke-miterlimit:10;}
	.st35{fill:none;stroke:#C5CB78;stroke-width:1.5;stroke-linecap:square;stroke-miterlimit:10;}
	.st36{fill:none;stroke:#FFFFFF;stroke-width:1.5;stroke-linecap:round;stroke-miterlimit:10;}
	.st37{fill:#00674A;}
	.st38{fill:#FFFFFF;stroke:#FFFFFF;stroke-miterlimit:10;}
	.st39{opacity:0.1;fill:#018D6A;}
	.st40{fill:none;stroke:#016649;stroke-width:2.4625;stroke-linecap:round;stroke-linejoin:round;stroke-miterlimit:10;}
	.st41{fill:none;stroke:#BBA757;stroke-width:2.4625;stroke-linecap:round;stroke-linejoin:round;stroke-miterlimit:10;}
	.st42{fill:#BAA657;stroke:#BAA657;stroke-width:3.0442;stroke-linecap:round;stroke-linejoin:round;stroke-miterlimit:10;}
	.st43{fill:none;stroke:#00674A;stroke-width:2.4625;stroke-linecap:round;stroke-linejoin:round;stroke-miterlimit:10;}
	.st44{fill:none;stroke:#00674A;stroke-width:1.312;stroke-linecap:round;stroke-linejoin:round;stroke-miterlimit:10;}
	.st45{fill:none;stroke:#BAA657;stroke-width:1.312;stroke-linecap:round;stroke-linejoin:round;stroke-miterlimit:10;}
	.st46{fill:#BAA657;}
	.st47{fill:#BBA757;}
	.st48{fill:none;stroke:#C4C4C4;stroke-width:1.5;stroke-linecap:round;stroke-linejoin:round;stroke-miterlimit:10;}
	.st49{fill:#A5A5A5;}
	.st50{fill:#FFFFFF;stroke:#FFFFFF;stroke-width:0.2;stroke-miterlimit:10;}
	.st51{fill:url(#SVGID_1_);}
	.st52{fill:url(#SVGID_2_);}
	.st53{fill:url(#SVGID_3_);}
	.st54{fill:url(#SVGID_4_);}
	.st55{opacity:0.2;fill:#010100;enable-background:new    ;}
	.st56{opacity:0.12;fill:#010100;enable-background:new    ;}
	.st57{opacity:0.25;fill:#FFFFFF;enable-background:new    ;}
	.st58{fill:#FF15D3;}
</style>
<g id="conta_corrente">
</g>
<g id="associe-se">
</g>
<g id="Denuncia">
</g>
<g id="Duvida_sfrequentes">
</g>
<g id="Encontre_agencia">
</g>
<g id="Home">
</g>
<g id="Sistema_Unicred">
</g>
<g id="Soluções">
</g>
<g id="Coopertivas">
</g>
<g id="Atendimento">
</g>
<g id="Cooperativismo">
</g>
<g id="Relatorios_contratos_conselhos_e_diretoria">
</g>
<g id="Estatuto">
</g>
<g id="Canais_Digitais">
</g>
<g id="geral">
	<g id="app_x5F_google_x5F_play">
		<g>
			<path d="M208,64H8c-4.4,0-8-3.6-8-8V8c0-4.4,3.6-8,8-8h200c4.4,0,8,3.6,8,8v48C216,60.4,212.4,64,208,64z"/>
		</g>
		<g>
			<g>
				<path class="st49" d="M208,1.3c3.7,0,6.7,3,6.7,6.7v48c0,3.7-3,6.7-6.7,6.7H8c-3.7,0-6.7-3-6.7-6.7V8c0-3.7,3-6.7,6.7-6.7H208       M208,0H8C3.6,0,0,3.6,0,8v48c0,4.4,3.6,8,8,8h200c4.4,0,8-3.6,8-8V8C216,3.6,212.4,0,208,0L208,0z"/>
			</g>
		</g>
		<path class="st8" d="M109,34.8c-3.8,0-6.8,2.9-6.8,6.8c0,3.9,3.1,6.8,6.8,6.8c3.8,0,6.8-2.9,6.8-6.8    C115.8,37.7,112.8,34.8,109,34.8z M109,45.7c-2.1,0-3.8-1.7-3.8-4.1c0-2.4,1.8-4.1,3.8-4.1c2.1,0,3.8,1.7,3.8,4.1    C112.9,44,111.1,45.7,109,45.7z M94.1,34.8c-3.8,0-6.8,2.9-6.8,6.8c0,3.9,3.1,6.8,6.8,6.8c3.8,0,6.8-2.9,6.8-6.8    C100.9,37.7,97.9,34.8,94.1,34.8z M94.1,45.7c-2.1,0-3.8-1.7-3.8-4.1c0-2.4,1.8-4.1,3.8-4.1c2.1,0,3.8,1.7,3.8,4.1    C98,44,96.2,45.7,94.1,45.7z M76.4,36.9v2.9h6.9c-0.2,1.6-0.7,2.8-1.6,3.6c-1,1-2.6,2.1-5.3,2.1c-4.3,0-7.6-3.4-7.6-7.7    s3.3-7.7,7.6-7.7c2.3,0,4,0.9,5.2,2.1l2-2c-1.7-1.6-4-2.9-7.2-2.9c-5.8,0-10.7,4.7-10.7,10.6c0,5.8,4.9,10.6,10.7,10.6    c3.1,0,5.5-1,7.4-3c1.9-1.9,2.5-4.6,2.5-6.8c0-0.7-0.1-1.3-0.2-1.8H76.4z M148.9,39.1c-0.6-1.5-2.3-4.3-5.8-4.3    c-3.5,0-6.4,2.8-6.4,6.8c0,3.8,2.9,6.8,6.8,6.8c3.1,0,4.9-1.9,5.7-3l-2.3-1.5c-0.8,1.1-1.8,1.9-3.4,1.9c-1.5,0-2.6-0.7-3.3-2.1    l9.1-3.8L148.9,39.1z M139.6,41.4c-0.1-2.6,2-4,3.6-4c1.2,0,2.2,0.6,2.5,1.4L139.6,41.4z M132.2,48h3V28h-3V48z M127.3,36.3h-0.1    c-0.7-0.8-2-1.5-3.6-1.5c-3.4,0-6.5,3-6.5,6.8c0,3.8,3.1,6.8,6.5,6.8c1.6,0,2.9-0.7,3.6-1.5h0.1v1c0,2.6-1.4,4-3.6,4    c-1.8,0-3-1.3-3.4-2.4l-2.6,1.1c0.7,1.8,2.7,4,6,4c3.5,0,6.5-2.1,6.5-7.1V35.2h-2.8V36.3z M123.9,45.7c-2.1,0-3.8-1.7-3.8-4.1    c0-2.4,1.7-4.1,3.8-4.1c2,0,3.6,1.8,3.6,4.1C127.5,44,125.9,45.7,123.9,45.7z M162.9,28h-7.2v20h3v-7.6h4.2c3.3,0,6.6-2.4,6.6-6.2    S166.2,28,162.9,28z M163,37.6h-4.2v-6.9h4.2c2.2,0,3.5,1.8,3.5,3.4C166.5,35.8,165.2,37.6,163,37.6z M181.4,34.8    c-2.2,0-4.4,1-5.3,3.1l2.7,1.1c0.6-1.1,1.6-1.5,2.7-1.5c1.5,0,3.1,0.9,3.1,2.6v0.2c-0.5-0.3-1.7-0.8-3.1-0.8    c-2.9,0-5.8,1.6-5.8,4.5c0,2.7,2.3,4.4,5,4.4c2,0,3.1-0.9,3.8-2h0.1V48h2.9v-7.7C187.5,36.7,184.8,34.8,181.4,34.8z M181.1,45.7    c-1,0-2.3-0.5-2.3-1.7c0-1.5,1.7-2.1,3.2-2.1c1.3,0,1.9,0.3,2.7,0.7C184.4,44.4,182.8,45.7,181.1,45.7z M198,35.2l-3.4,8.7h-0.1    l-3.6-8.7h-3.2l5.3,12.1l-3,6.7h3.1l8.2-18.9H198z M171.1,48h3V28h-3V48z"/>
		<g>
			<path class="st50" d="M66.1,20.8v-9.6h2.9c1.5,0,2.7,0.4,3.5,1.3c0.9,0.9,1.3,2,1.3,3.5c0,1.4-0.4,2.6-1.3,3.5     c-0.9,0.9-2.1,1.3-3.5,1.3H66.1z M67.4,19.6h1.7c1.1,0,2-0.3,2.6-1c0.6-0.6,1-1.5,1-2.7c0-1.1-0.3-2-1-2.7c-0.6-0.6-1.5-1-2.6-1     h-1.7V19.6z"/>
			<path class="st50" d="M75.7,20.8v-9.6h1.2v9.6H75.7z"/>
			<path class="st50" d="M81.8,21c-0.7,0-1.4-0.2-2-0.7c-0.7-0.5-1.1-1.1-1.3-1.9l1.1-0.5c0.1,0.5,0.4,1,0.8,1.3     c0.4,0.4,0.9,0.5,1.4,0.5c0.5,0,1-0.1,1.4-0.4s0.6-0.7,0.6-1.1c0-0.5-0.2-0.9-0.6-1.2c-0.4-0.3-1-0.6-1.8-0.8     c-0.8-0.3-1.5-0.6-1.9-1c-0.4-0.4-0.7-1-0.7-1.6c0-0.7,0.3-1.3,0.8-1.8c0.5-0.5,1.3-0.8,2.1-0.8c0.8,0,1.5,0.2,2,0.6     c0.5,0.4,0.8,0.9,1,1.3l-1.1,0.5c-0.1-0.3-0.3-0.6-0.6-0.8c-0.3-0.3-0.7-0.4-1.2-0.4c-0.5,0-0.9,0.1-1.2,0.4     c-0.3,0.3-0.5,0.6-0.5,1c0,0.4,0.2,0.7,0.5,0.9c0.3,0.2,0.8,0.5,1.4,0.7c0.5,0.2,0.9,0.3,1.2,0.4c0.3,0.1,0.6,0.3,1,0.6     c0.3,0.2,0.6,0.5,0.7,0.9c0.2,0.4,0.2,0.8,0.2,1.2s-0.1,0.9-0.3,1.2c-0.2,0.4-0.4,0.7-0.8,0.9c-0.3,0.2-0.7,0.4-1,0.5     C82.6,21,82.2,21,81.8,21z"/>
			<path class="st50" d="M88,20.8h-1.2v-9.6h3.3c0.8,0,1.5,0.3,2.1,0.8c0.6,0.5,0.9,1.2,0.9,2c0,0.8-0.3,1.5-0.9,2     c-0.6,0.5-1.3,0.8-2.1,0.8h-2V20.8z M88,15.7h2.1c0.5,0,0.9-0.2,1.2-0.5c0.3-0.3,0.5-0.7,0.5-1.2s-0.2-0.8-0.5-1.2     c-0.3-0.3-0.7-0.5-1.2-0.5H88V15.7z"/>
			<path class="st50" d="M102.5,19.6c-0.9,1-2.1,1.5-3.5,1.5c-1.4,0-2.6-0.5-3.5-1.5c-0.9-1-1.4-2.2-1.4-3.6s0.5-2.6,1.4-3.6     c0.9-1,2.1-1.5,3.5-1.5c1.4,0,2.6,0.5,3.5,1.5c0.9,1,1.4,2.2,1.4,3.6C103.9,17.4,103.4,18.6,102.5,19.6z M96.3,18.8     c0.7,0.7,1.6,1.1,2.6,1.1c1,0,1.9-0.4,2.6-1.1c0.7-0.7,1.1-1.6,1.1-2.8s-0.4-2-1.1-2.8c-0.7-0.7-1.6-1.1-2.6-1.1     c-1,0-1.9,0.4-2.6,1.1c-0.7,0.7-1.1,1.6-1.1,2.8S95.6,18,96.3,18.8z"/>
			<path class="st50" d="M105.6,20.8v-9.6h1.5l4.7,7.5h0.1l-0.1-1.9v-5.6h1.2v9.6h-1.3l-4.9-7.8h-0.1l0.1,1.9v6H105.6z"/>
			<path class="st50" d="M115.2,20.8v-9.6h1.2v9.6H115.2z M116.4,10.4h-1.1l0.7-1.7h1.3L116.4,10.4z"/>
			<path class="st50" d="M121,20.8l-3.4-9.6h1.4l2.6,7.8h0.1l2.7-7.8h1.4l-3.5,9.6H121z"/>
			<path class="st50" d="M132.8,12.4h-4.4v3h3.9v1.2h-3.9v3h4.4v1.2h-5.6v-9.6h5.6V12.4z"/>
			<path class="st50" d="M134.7,20.8v-9.6h1.2v8.4h4.2v1.2H134.7z"/>
			<path class="st50" d="M144.9,20.8v-9.6h1.5l4.7,7.5h0.1l-0.1-1.9v-5.6h1.2v9.6H151l-4.9-7.8h-0.1l0.1,1.9v6H144.9z"/>
			<path class="st50" d="M162.3,19.6c-0.9,1-2.1,1.5-3.5,1.5c-1.4,0-2.6-0.5-3.5-1.5c-0.9-1-1.4-2.2-1.4-3.6s0.5-2.6,1.4-3.6     c0.9-1,2.1-1.5,3.5-1.5c1.4,0,2.6,0.5,3.5,1.5c0.9,1,1.4,2.2,1.4,3.6C163.7,17.4,163.3,18.6,162.3,19.6z M156.2,18.8     c0.7,0.7,1.6,1.1,2.6,1.1s1.9-0.4,2.6-1.1c0.7-0.7,1.1-1.6,1.1-2.8s-0.4-2-1.1-2.8c-0.7-0.7-1.6-1.1-2.6-1.1s-1.9,0.4-2.6,1.1     c-0.7,0.7-1.1,1.6-1.1,2.8S155.5,18,156.2,18.8z"/>
		</g>
		<g>

				<linearGradient id="SVGID_1_" gradientUnits="userSpaceOnUse" x1="34.8792" y1="16011.5977" x2="8.0275" y2="15984.7461" gradientTransform="matrix(1 0 0 -1 0 16025.5332)">
				<stop offset="0" style="stop-color:#4597CF"/>
				<stop offset="6.574450e-03" style="stop-color:#4498D0"/>
				<stop offset="0.2601" style="stop-color:#16B9EA"/>
				<stop offset="0.5122" style="stop-color:#4DC2EC"/>
				<stop offset="0.7604" style="stop-color:#69C7E6"/>
				<stop offset="1" style="stop-color:#71C9E4"/>
			</linearGradient>
			<path class="st51" d="M16.7,12.1c-0.5,0.5-0.7,1.3-0.7,2.2v35.4c0,1,0.3,1.8,0.7,2.2l0.1,0.1l19.8-19.8V32v-0.2L16.8,11.9     L16.7,12.1z"/>

				<linearGradient id="SVGID_2_" gradientUnits="userSpaceOnUse" x1="54.1346" y1="15993.5312" x2="15.4197" y2="15993.5312" gradientTransform="matrix(1 0 0 -1 0 16025.5332)">
				<stop offset="0" style="stop-color:#FFE000"/>
				<stop offset="0.4087" style="stop-color:#FCBC00"/>
				<stop offset="0.7754" style="stop-color:#F7A300"/>
				<stop offset="1" style="stop-color:#F59A00"/>
			</linearGradient>
			<path class="st52" d="M43.2,38.8l-6.6-6.6V32v-0.2l6.6-6.6l0.1,0.1l7.8,4.4c2.2,1.3,2.2,3.3,0,4.6l-7.8,4.4L43.2,38.8z"/>

				<linearGradient id="SVGID_3_" gradientUnits="userSpaceOnUse" x1="39.7228" y1="15989.8594" x2="3.3097" y2="15953.4473" gradientTransform="matrix(1 0 0 -1 0 16025.5332)">
				<stop offset="0" style="stop-color:#E8393C"/>
				<stop offset="1" style="stop-color:#C31363"/>
			</linearGradient>
			<path class="st53" d="M43.4,38.8L36.6,32L16.7,51.9c0.7,0.8,2,0.9,3.3,0.1L43.4,38.8"/>

				<linearGradient id="SVGID_4_" gradientUnits="userSpaceOnUse" x1="11.6755" y1="16025.252" x2="27.9355" y2="16008.9912" gradientTransform="matrix(1 0 0 -1 0 16025.5332)">
				<stop offset="0" style="stop-color:#329F71"/>
				<stop offset="6.850000e-02" style="stop-color:#2EA671"/>
				<stop offset="0.4762" style="stop-color:#53B766"/>
				<stop offset="0.8009" style="stop-color:#6BBC65"/>
				<stop offset="1" style="stop-color:#72BE66"/>
			</linearGradient>
			<path class="st54" d="M43.4,25.2L20,12c-1.4-0.8-2.6-0.7-3.3,0.1L36.6,32L43.4,25.2z"/>
			<g>
				<path class="st55" d="M43.2,38.6L20,51.8c-1.3,0.7-2.5,0.7-3.2,0l0,0l-0.1,0.1l0,0l0.1,0.1l0,0c0.7,0.7,1.9,0.7,3.2,0l23.4-13.3      L43.2,38.6z"/>
				<path class="st56" d="M16.7,51.7c-0.5-0.5-0.7-1.3-0.7-2.2v0.2c0,1,0.3,1.8,0.7,2.2l0.1-0.1L16.7,51.7z"/>
			</g>
			<path class="st56" d="M51.2,34.1l-8,4.5l0.1,0.1l7.8-4.4c1.1-0.6,1.7-1.5,1.7-2.3l0,0C52.8,32.8,52.2,33.5,51.2,34.1z"/>
			<path class="st57" d="M20,12.2l31.2,17.7c1,0.6,1.6,1.3,1.7,2.1l0,0c0-0.8-0.6-1.7-1.7-2.3L20,12c-2.2-1.3-4.1-0.2-4.1,2.3v0.2     C16,12,17.8,10.9,20,12.2z"/>
		</g>
	</g>
</g>
<g id="textos">
</g>
</svg>
